HIERARCHY
ROOT Hips
{
     OFFSET 1.88212 96.90440 -13.34250
     CHANNELS 6 Xposition Yposition Zposition Zrotation Xrotation Yrotation
     JOINT Spine
     {
          OFFSET 0.00000 11.89050 0.00000
          CHANNELS 3 Zrotation Xrotation Yrotation
          JOINT Spine1
          {
               OFFSET -0.00000 25.65740 0.12766
               CHANNELS 3 Zrotation Xrotation Yrotation
               JOINT HEad
               {
                    OFFSET 0.00000 8.73416 0.01134
                    CHANNELS 3 Zrotation Xrotation Yrotation
                    End Site
                    {
                         OFFSET -0.29000 12.77420 2.51395
                    }
               }
               JOINT LeftShoulder1
               {
                    OFFSET 8.99000 -0.36225 -0.22000
                    CHANNELS 3 Zrotation Xrotation Yrotation
                    JOINT LeftArm
                    {
                         OFFSET 10.28270 -0.00338 0.32212
                         CHANNELS 3 Zrotation Xrotation Yrotation
                         JOINT LeftForeArm
                         {
                              OFFSET 32.76690 0.09914 -1.42434
                              CHANNELS 3 Zrotation Xrotation Yrotation
                              JOINT LeftHand
                              {
                                   OFFSET 27.56430 0.08536 1.02216
                                   CHANNELS 3 Zrotation Xrotation Yrotation
                                   End Site
                                   {
                                        OFFSET 16.74430 -0.60000 1.50291
                                   }
                              }
                         }
                    }
               }
               JOINT RightShoulder
               {
                    OFFSET -8.99000 -0.36225 -0.22000
                    CHANNELS 3 Zrotation Xrotation Yrotation
                    JOINT RightArm
                    {
                         OFFSET -10.28270 -0.00338 0.32212
                         CHANNELS 3 Zrotation Xrotation Yrotation
                         JOINT RightForeArm
                         {
                              OFFSET -32.89710 0.09914 -1.42434
                              CHANNELS 3 Zrotation Xrotation Yrotation
                              JOINT RightHand
                              {
                                   OFFSET -27.49210 0.08536 1.02216
                                   CHANNELS 3 Zrotation Xrotation Yrotation
                                   End Site
                                   {
                                        OFFSET -16.63120 -0.60000 1.50291
                                   }
                              }
                         }
                    }
               }
          }
     }
     JOINT LeftUpLeg
     {
          OFFSET 8.94580 -8.66707 0.10165
          CHANNELS 3 Zrotation Xrotation Yrotation
          JOINT LeftLeg
          {
               OFFSET 0.00000 -44.42270 1.37270
               CHANNELS 3 Zrotation Xrotation Yrotation
               JOINT LeftFoot
               {
                    OFFSET -0.25355 -42.09240 -1.46059
                    CHANNELS 3 Zrotation Xrotation Yrotation
                    JOINT LeftToes
                    {
                         OFFSET -0.04000 -4.41509 8.49910
                         CHANNELS 3 Zrotation Xrotation Yrotation
                         End Site
                         {
                              OFFSET 0.08000 -0.04745 9.77979
                         }
                    }
               }
          }
     }
     JOINT RightUpLeg
     {
          OFFSET -8.94580 -8.66707 0.10165
          CHANNELS 3 Zrotation Xrotation Yrotation
          JOINT RightLeg
          {
               OFFSET 0.00000 -44.42270 1.37270
               CHANNELS 3 Zrotation Xrotation Yrotation
               JOINT RightFoot
               {
                    OFFSET 0.25355 -42.09240 -1.46059
                    CHANNELS 3 Zrotation Xrotation Yrotation
                    JOINT RightToes
                    {
                         OFFSET 0.04000 -4.41509 8.49910
                         CHANNELS 3 Zrotation Xrotation Yrotation
                         End Site
                         {
                              OFFSET -0.08000 -0.13745 9.77979
                         }
                    }
               }
          }
     }
}
MOTION
Frames: 14
Frame Time: 0.01667
41.48372 99.65427 -0.95007 26.59289 44.56514 85.45080 7.40147 13.85195 17.96642 0.00725 -0.01231 -0.04138 -10.91007 10.50112 14.22655 -0.31172 9.34872 -3.72845 -52.69837 -18.76402 16.94902 -8.62142 11.00656 -38.80493 29.56869 10.97870 -4.60570 17.51838 5.24628 -5.81726 53.85573 15.36877 50.56916 8.26389 27.34199 99.52236 -0.94145 8.42418 6.16010 44.91174 -4.26690 -18.30030 -62.52110 9.66374 84.62846 0.55948 -0.08109 0.04847 -5.90560 -5.85802 -13.55342 -42.31266 6.29204 8.60174 -3.22650 29.38594 -4.35803 39.68660 0.00460 0.00922 -19.58745 11.68205 -9.65934 
40.75186 98.73634 -0.30821 27.23185 43.96723 87.11362 6.83725 15.17853 19.07180 0.00573 -0.00861 -0.03741 -10.17462 9.69991 15.16108 0.84839 8.27903 -6.21561 -51.88376 -20.22864 17.67482 -8.05902 12.34161 -42.59029 31.74301 2.84835 -5.17756 18.24173 4.02955 -7.80309 53.74583 15.39997 50.91111 7.78455 27.83292 100.25764 -1.27950 8.36789 5.90412 43.77718 -6.64775 -16.34752 -62.25944 11.92275 85.10956 0.18372 -0.00212 -0.00628 -5.07596 -6.34664 -14.20105 -40.99265 7.10415 9.12608 -2.08915 31.15652 -6.51250 41.01515 0.00391 0.00755 -21.48528 10.74145 -9.90447 
40.01120 97.86784 0.41709 27.74227 43.41038 88.76795 6.32603 16.32145 19.77850 0.00465 -0.00394 -0.03365 -9.67803 8.97489 16.14914 1.58107 7.64928 -7.97904 -50.87858 -21.80501 17.90026 -6.30416 14.44519 -50.73259 29.03107 11.68457 2.82687 18.69142 3.33177 -9.25055 53.66871 15.20155 51.43863 7.48124 28.17294 100.72540 -1.47666 8.51724 5.49211 43.05869 -9.40309 -13.35061 -61.92021 15.48780 84.97322 2.46280 -0.00546 -0.00101 -7.19680 -5.95899 -14.33428 -39.67977 7.73694 9.48713 -0.78738 32.77465 -8.70159 42.22982 0.00320 0.00595 -23.23443 9.98762 -10.07267 
39.26524 97.03570 1.22760 28.13057 42.87395 90.41038 4.98429 18.26926 20.07264 -0.03121 0.09115 -0.05718 -8.90825 7.00793 17.29899 2.50207 6.11644 -8.75791 -49.77693 -23.44310 17.73429 -5.03871 16.25100 -56.30826 30.51110 7.50114 4.23826 13.44192 11.79121 -5.35056 59.83062 7.22772 57.47181 6.90854 28.55119 101.29659 -1.82873 8.53677 5.31096 42.77005 -12.47197 -9.36642 -61.60474 20.22064 84.32403 2.70237 0.00516 -0.00322 -7.57940 -5.74682 -14.33311 -38.36338 8.19059 9.68725 0.63841 34.23172 -10.90568 43.35063 0.00249 0.00455 -24.81703 9.44808 -10.16168 
38.49419 96.22810 2.13559 28.41191 42.35246 92.02841 2.94535 20.91496 20.07731 -0.03240 0.08828 -0.05373 -9.14685 5.15957 18.27638 3.53433 4.02461 -8.75299 -48.65527 -25.15271 17.20248 -4.10812 17.88563 -60.42686 29.23620 11.73304 7.22339 15.01323 8.84245 -5.45722 59.18958 7.80814 57.17957 6.49483 28.85496 101.71780 -2.10463 8.66478 5.04764 42.93025 -15.78159 -4.43015 -61.24561 25.99966 83.19013 3.30389 0.00634 -0.00352 -8.54313 -5.41111 -14.05487 -37.01882 8.56171 9.73425 1.81289 34.24042 -13.72559 26.45500 -0.09789 0.16906 -8.38766 10.63256 -9.89343 
37.68209 95.44313 3.13804 28.72466 41.87106 93.60030 0.76729 23.77152 20.10995 -0.01118 0.02645 -0.01789 -9.69164 3.41894 19.05827 4.50519 1.89074 -8.44187 -47.55638 -26.81008 16.58838 -2.86441 19.49298 -65.86320 30.56234 11.84465 5.09376 16.48870 5.93970 -5.40347 58.59133 8.35394 56.96356 6.13486 29.12508 102.20251 -2.40236 8.75261 4.80104 43.27761 -19.10571 0.78815 -60.67937 32.03665 81.78436 3.69458 0.00221 -0.00163 -9.35115 -5.06427 -13.72212 -35.59177 8.91987 9.72116 3.24989 34.40474 -16.61189 9.43034 -0.08772 0.08961 7.87980 11.34205 -9.42537 
36.84248 94.69070 4.22945 29.05023 41.41375 95.13107 -1.54237 26.81943 20.22309 -0.00868 0.02377 -0.01381 -10.16070 1.37190 19.78053 3.53815 2.58833 -7.15551 -45.46644 -29.85403 13.13458 -1.40924 20.92704 -72.43884 30.66591 12.49331 6.40964 17.84686 3.06363 -5.00736 58.11248 8.72786 56.86888 5.87878 29.33270 102.64983 -2.70534 8.80318 4.52356 43.75377 -22.40612 6.29731 -59.71283 38.24999 79.99176 3.94870 0.00240 -0.00133 -9.98088 -4.74356 -13.31265 -34.08220 9.27646 9.64518 4.46678 34.06664 -19.19193 -0.32143 -0.06612 0.08363 16.93943 12.41738 -9.31647 
36.00068 93.98683 5.40493 29.36289 40.97248 96.63228 -4.00627 30.03664 20.46442 -0.00838 0.02344 -0.01334 -10.56143 -0.91688 20.41032 3.19936 2.20172 -5.98116 -43.96967 -32.58457 10.35365 -0.11211 22.13598 -78.44621 30.41470 13.09089 8.43799 19.09979 0.29198 -4.34124 57.76217 8.92262 56.89843 5.70890 29.48499 103.06567 -3.00314 8.82756 4.19978 44.38553 -25.62968 12.13597 -58.10955 44.56995 77.56134 4.10793 0.00282 -0.00106 -10.43504 -4.42131 -12.80401 -32.51237 9.64562 9.50251 5.35077 33.27987 -21.40453 -3.77198 -0.04500 0.04415 19.83303 13.81824 -9.46358 
35.21273 93.14271 6.50419 29.07321 39.95791 98.74380 -6.27202 32.81525 20.63671 -0.02199 0.01805 -0.01149 -10.84775 -3.09286 20.81840 1.02020 3.36353 -5.83957 -41.80873 -38.42429 6.61312 0.78918 24.34391 -84.67224 28.94500 9.93152 7.92262 18.17914 -0.04761 -4.78983 59.16458 8.47225 58.52098 5.49129 29.29807 103.26470 0.36181 8.27717 -0.38160 43.36919 -27.96233 16.85695 -57.25764 50.86493 75.57934 3.70991 0.02236 -0.00544 -10.88685 -3.76192 -17.25957 -30.56110 9.83695 9.16586 6.72208 32.59792 -24.02534 -7.28913 -0.01540 0.02258 18.14295 10.72127 -6.75235 
34.47661 92.17119 7.46153 28.23307 38.31157 101.40611 -8.26918 35.13099 20.66517 -0.02312 0.01798 -0.01087 -11.02026 -5.15839 21.02852 -2.11341 5.58246 -6.60740 -40.05799 -46.75012 1.75502 1.19403 27.61023 -90.84132 27.27093 5.36129 6.14932 15.85126 1.29463 -5.88725 61.87300 7.55927 61.08990 5.26364 28.81565 103.09389 5.69827 7.16796 -6.19390 41.18972 -29.80715 20.51613 -56.53902 57.00086 73.63184 2.05661 0.01480 -0.07595 -9.43653 -2.08322 -24.03351 -28.24665 9.68137 8.62741 8.62447 31.97163 -27.02731 -10.90869 -0.01447 0.01018 14.26413 4.64895 -2.99642 
33.78310 91.21613 8.31381 26.94510 36.06284 104.47564 -10.02139 36.98061 20.49537 -0.02279 0.01673 -0.01264 -11.04941 -7.08198 21.08464 -5.55948 8.58717 -8.07349 -40.07970 -56.88681 -5.20480 0.92721 31.96146 -96.55593 25.62596 0.60392 3.64246 12.58912 3.84378 -7.38118 65.70321 6.51371 64.21997 5.13118 28.09381 102.52575 12.32324 5.88975 -11.76669 38.51468 -31.61180 23.38242 -56.22093 63.14368 72.00890 -0.32578 -0.01067 -0.13794 -6.45126 -0.70546 -32.00392 -25.67053 9.05609 7.94000 11.02084 31.24057 -30.35600 -14.69450 -0.01442 0.00151 9.56764 -3.46169 0.57198 
33.15252 90.49039 9.05756 24.32761 32.18093 108.42165 -11.49038 37.30025 19.54422 -0.05987 0.04477 -0.04992 -10.39846 -8.48539 21.07385 -9.72362 13.14654 -11.30718 -47.18389 -71.47174 -20.43541 -1.85570 39.40229 -100.16282 24.14113 -2.60972 -0.79672 7.65717 8.92627 -9.95849 71.94968 5.44019 68.10838 5.31691 27.08372 101.18889 7.95807 7.64379 2.19012 36.00809 -33.98423 25.02627 -60.68715 69.38594 73.67868 -3.83115 -0.03820 -0.30774 -1.28815 -1.66762 -41.85813 -22.66372 7.48012 7.16158 14.52377 29.51863 -34.34756 -18.80723 -0.01521 -0.00639 2.75881 -14.73277 3.77147 
32.59515 90.07579 9.68249 21.01437 26.85731 112.55860 -12.58087 36.32957 17.54038 -0.04863 0.03585 -0.05839 -9.23607 -9.14066 21.20553 -5.86445 9.20668 -9.91754 -81.34927 -75.08231 -53.55152 -7.64539 48.67883 -100.00697 21.63359 -1.68568 -5.61259 10.52503 5.84544 -7.90579 71.72167 3.83270 65.85919 4.62090 25.72562 96.14409 24.84793 10.30483 -10.57471 33.58514 -36.63480 25.36822 -64.31761 74.20228 75.47131 -6.93678 -0.01818 -0.27912 4.32997 -4.20249 -50.49253 -19.49003 4.97811 6.50098 18.78982 26.50546 -38.61230 -23.35849 -0.01735 -0.00442 9.12720 -10.41677 2.87948 
32.11512 89.96736 10.18472 17.44788 20.29426 116.34292 -13.12169 34.29270 14.26758 -0.02915 0.02936 -0.06289 -7.73147 -8.90784 21.71736 -1.78096 5.39091 -6.95428 -120.08533 -71.67782 -90.60771 -18.90456 58.46563 -93.36227 16.91770 -0.43172 -10.24490 14.09375 3.10238 -4.93495 71.78420 2.97563 64.97994 4.54903 24.79517 93.49886 19.96855 7.05383 1.30719 31.36159 -39.33509 24.51140 -56.42947 76.83415 67.74183 -7.87402 -0.06165 -0.04805 2.64191 -12.38433 -44.41523 -16.33543 1.62556 6.12712 23.40136 22.07655 -42.72658 -28.38219 -0.02227 0.00244 9.07331 -13.67759 3.87292 
